REM DIRINDEX 1\2,1\3
REM DIRNAME cjc145,folder01,folder02
TITLE ""
FILE "DISC2Track33.mp3" MP3
  TRACK 01 AUDIO
    TITLE "0:"
    INDEX 01 00:00:00
  TRACK 02 AUDIO
    TITLE "3:cjc145_2341"
    INDEX 01 00:00:09
  TRACK 03 AUDIO
    TITLE "0:"
    INDEX 01 00:04:72
  TRACK 04 AUDIO
    TITLE "2:cjc145_2342"
    INDEX 01 00:06:02
  TRACK 05 AUDIO
    TITLE "2:cjc145_2343"
    INDEX 01 00:08:62
  TRACK 06 AUDIO
    TITLE "2:cjc145_2344"
    INDEX 01 00:11:56
  TRACK 07 AUDIO
    TITLE "0:"
    INDEX 01 00:14:29
  TRACK 08 AUDIO
    TITLE "2:cjc145_2345"
    INDEX 01 00:15:01
  TRACK 09 AUDIO
    TITLE "2:cjc145_2346"
    INDEX 01 00:16:65
  TRACK 10 AUDIO
    TITLE "2:cjc145_2347"
    INDEX 01 00:18:74
  TRACK 11 AUDIO
    TITLE "0:"
    INDEX 01 00:20:45
  TRACK 12 AUDIO
    TITLE "2:cjc145_2348"
    INDEX 01 00:21:17
  TRACK 13 AUDIO
    TITLE "2:cjc145_2349"
    INDEX 01 00:24:00
  TRACK 14 AUDIO
    TITLE "2:cjc145_2350"
    INDEX 01 00:27:47
  TRACK 15 AUDIO
    TITLE "0:"
    INDEX 01 00:30:73
  TRACK 16 AUDIO
    TITLE "2:cjc145_2351"
    INDEX 01 00:31:49
  TRACK 17 AUDIO
    TITLE "2:cjc145_2352"
    INDEX 01 00:34:36
  TRACK 18 AUDIO
    TITLE "2:cjc145_2353"
    INDEX 01 00:36:68
  TRACK 19 AUDIO
    TITLE "0:"
    INDEX 01 00:39:07
  TRACK 20 AUDIO
    TITLE "2:cjc145_2354"
    INDEX 01 00:39:54
  TRACK 21 AUDIO
    TITLE "2:cjc145_2355"
    INDEX 01 00:41:71
  TRACK 22 AUDIO
    TITLE "2:cjc145_2356"
    INDEX 01 00:44:05
  TRACK 23 AUDIO
    TITLE "0:"
    INDEX 01 00:45:73
  TRACK 24 AUDIO
    TITLE "2:cjc145_2357"
    INDEX 01 00:46:45
  TRACK 25 AUDIO
    TITLE "2:cjc145_2358"
    INDEX 01 00:48:59
  TRACK 26 AUDIO
    TITLE "2:cjc145_2359"
    INDEX 01 00:50:52
  TRACK 27 AUDIO
    TITLE "0:"
    INDEX 01 00:52:36
  TRACK 28 AUDIO
    TITLE "2:cjc145_2360"
    INDEX 01 00:53:02
  TRACK 29 AUDIO
    TITLE "2:cjc145_2361"
    INDEX 01 00:54:66
  TRACK 30 AUDIO
    TITLE "2:cjc145_2362"
    INDEX 01 00:56:53
  TRACK 31 AUDIO
    TITLE "0:"
    INDEX 01 00:58:24
  TRACK 32 AUDIO
    TITLE "2:cjc145_2363"
    INDEX 01 00:58:69
  TRACK 33 AUDIO
    TITLE "2:cjc145_2364"
    INDEX 01 01:03:26
  TRACK 34 AUDIO
    TITLE "2:cjc145_2365"
    INDEX 01 01:07:49
  TRACK 35 AUDIO
    TITLE "0:"
    INDEX 01 01:11:52
  TRACK 36 AUDIO
    TITLE "2:cjc145_2366"
    INDEX 01 01:12:30
  TRACK 37 AUDIO
    TITLE "2:cjc145_2367"
    INDEX 01 01:16:16
  TRACK 38 AUDIO
    TITLE "2:cjc145_2368"
    INDEX 01 01:20:28
  TRACK 39 AUDIO
    TITLE "0:"
    INDEX 01 01:24:22
  TRACK 40 AUDIO
    TITLE "2:cjc145_2369"
    INDEX 01 01:24:71
  TRACK 41 AUDIO
    TITLE "2:cjc145_2370"
    INDEX 01 01:27:06
  TRACK 42 AUDIO
    TITLE "2:cjc145_2371"
    INDEX 01 01:28:72
  TRACK 43 AUDIO
    TITLE "0:"
    INDEX 01 01:30:52
  TRACK 44 AUDIO
    TITLE "2:cjc145_2372"
    INDEX 01 01:31:20
  TRACK 45 AUDIO
    TITLE "2:cjc145_2373"
    INDEX 01 01:34:14
  TRACK 46 AUDIO
    TITLE "2:cjc145_2374"
    INDEX 01 01:36:60
  TRACK 47 AUDIO
    TITLE "0:"
    INDEX 01 01:39:10
  TRACK 48 AUDIO
    TITLE "2:cjc145_2375"
    INDEX 01 01:39:57
  TRACK 49 AUDIO
    TITLE "2:cjc145_2376"
    INDEX 01 01:42:39
  TRACK 50 AUDIO
    TITLE "2:cjc145_2377"
    INDEX 01 01:45:24
  TRACK 51 AUDIO
    TITLE "0:"
    INDEX 01 01:47:64
  TRACK 52 AUDIO
    TITLE "2:cjc145_2378"
    INDEX 01 01:48:36
  TRACK 53 AUDIO
    TITLE "2:cjc145_2379"
    INDEX 01 01:51:01
  TRACK 54 AUDIO
    TITLE "2:cjc145_2380"
    INDEX 01 01:53:37
  TRACK 55 AUDIO
    TITLE "0:"
    INDEX 01 01:55:58
  TRACK 56 AUDIO
    TITLE "2:cjc145_2381"
    INDEX 01 01:56:30
  TRACK 57 AUDIO
    TITLE "2:cjc145_2382"
    INDEX 01 01:59:55
  TRACK 58 AUDIO
    TITLE "2:cjc145_2383"
    INDEX 01 02:03:28
  TRACK 59 AUDIO
    TITLE "0:"
    INDEX 01 02:06:57
